<svg width="60" height="59" viewBox="0 0 60 59" fill="none" xmlns="http://www.w3.org/2000/svg">
<path d="M49.6741 31.4388L31.3243 49.7098C31.0809 49.9527 30.7918 50.1455 30.4735 50.277C30.1552 50.4085 29.814 50.4762 29.4693 50.4762C29.1247 50.4762 28.7835 50.4085 28.4652 50.277C28.1469 50.1455 27.8577 49.9527 27.6144 49.7098L9.26459 31.4388C8.77424 30.948 8.49897 30.284 8.49897 29.5917C8.49897 28.8995 8.77424 28.2354 9.26459 27.7447L27.6144 9.45875C28.1072 8.9705 28.7741 8.69642 29.4693 8.69642C30.1646 8.69642 30.8315 8.9705 31.3243 9.45875L49.6741 27.7298C50.1644 28.2205 50.4397 28.8846 50.4397 29.5768C50.4397 30.269 50.1644 30.9331 49.6741 31.4238V31.4388ZM52.2491 29.5917C52.2507 29.0116 52.1366 28.437 51.9135 27.9012C51.6903 27.3653 51.3625 26.8789 50.9491 26.4702L32.5993 8.20417C32.1883 7.79398 31.7 7.46854 31.1625 7.2465C30.625 7.02445 30.0488 6.91016 29.4668 6.91016C28.8849 6.91016 28.3087 7.02445 27.7712 7.2465C27.2337 7.46854 26.7454 7.79398 26.3344 8.20417L7.99961 26.4702C7.16852 27.2983 6.70166 28.4211 6.70166 29.5917C6.70166 30.7624 7.16852 31.8852 7.99961 32.7132L26.3494 50.9843C27.1815 51.8091 28.3077 52.2721 29.4818 52.2721C30.6559 52.2721 31.7822 51.8091 32.6143 50.9843L50.9641 32.7132C51.3775 32.3045 51.7053 31.8182 51.9285 31.2823C52.1516 30.7465 52.2657 30.1718 52.2641 29.5917" fill="#EAB53E"/>
<path d="M54.2542 12.4706L45.4993 17.1603L43.8093 15.4726L53.3092 7.03407C53.9116 7.86829 54.2368 8.86924 54.2392 9.89669L54.2542 12.4706ZM54.2542 18.1062L48.1243 19.779L46.0743 17.7378L54.2542 13.3567V18.1062ZM54.2542 22.089L50.8592 22.4972L48.7593 20.4113L54.2592 18.9177L54.2542 22.089ZM54.2542 26.4153C53.9089 25.717 53.4512 25.0797 52.8992 24.5285L51.5392 23.1743L54.2542 22.8507V26.4153ZM54.2542 36.4171L51.4592 36.0785L52.8992 34.6447C53.4523 34.0945 53.9101 33.4569 54.2542 32.7579V36.4171ZM54.2542 40.36L48.6843 38.8316L50.7742 36.7506L54.2742 37.1688L54.2542 40.36ZM54.2542 45.916L45.9993 41.5101L48.0493 39.4788L54.2542 41.1715V45.916ZM54.2542 49.0923C54.2528 50.1919 53.8814 51.2594 53.1992 52.1242L43.7543 43.7603L45.4343 42.0826L54.2542 46.7972V49.0923ZM49.3143 54.016H46.9993L41.4044 46.1002L43.1943 44.308L52.6642 52.7017C51.7537 53.5443 50.5573 54.0136 49.3143 54.016V54.016ZM41.1444 54.016L38.9194 48.5745L40.8394 46.6578L46.0393 54.021L41.1444 54.016ZM37.1444 54.016L36.4344 51.0289L38.3044 49.167L40.3044 54.021L37.1444 54.016ZM33.1045 54.016C33.6256 53.7105 34.1061 53.3409 34.5344 52.9158L35.7994 51.6562L36.3594 54.016H33.1045ZM25.6496 51.6413L7.31479 33.3802C6.30814 32.3751 5.74284 31.0135 5.74284 29.5941C5.74284 28.1746 6.30814 26.813 7.31479 25.8079L25.6646 7.53689C26.6734 6.53335 28.041 5.96963 29.467 5.96963C30.893 5.96963 32.2607 6.53335 33.2695 7.53689L46.7443 20.9489L51.6142 25.798C52.6221 26.8024 53.1883 28.1642 53.1883 29.5841C53.1883 31.004 52.6221 32.3658 51.6142 33.3702L33.2645 51.6363C32.2557 52.6398 30.888 53.2036 29.462 53.2036C28.036 53.2036 26.6684 52.6398 25.6596 51.6363L25.6496 51.6413ZM22.3596 54.016L22.9546 51.5019L24.3746 52.9158C24.8019 53.342 25.2825 53.7118 25.8046 54.016H22.3596ZM21.5746 54.016H18.4447L20.4846 49.0375L22.3346 50.8845L21.5746 54.016ZM17.5747 54.016H12.7097L17.9997 46.5483L19.8996 48.4401L17.5747 54.016ZM9.90976 54.016C9.23684 54.0161 8.57106 53.8788 7.95357 53.6124C7.33609 53.3461 6.78004 52.9565 6.3198 52.4677L15.6547 44.2233L17.4247 45.9857L11.7497 54.021L9.90976 54.016ZM4.99982 49.0973V46.5383L13.4347 42.0179L15.0947 43.6707L5.85481 51.8603C5.29599 51.0465 4.9979 50.0832 4.99982 49.0973V49.0973ZM4.99982 41.0321L10.8447 39.439L12.8447 41.4304L4.99982 45.6522V41.0321ZM4.99982 37.124L8.13978 36.7457L10.2098 38.8316L4.99982 40.2306V37.124ZM4.99982 33.3553C5.29233 33.8348 5.64148 34.2778 6.03981 34.6746L7.45979 36.0885L4.99982 36.3424V33.3553ZM4.99982 22.9005L7.37479 23.1843L6.03981 24.5185C5.64041 24.9217 5.29124 25.3714 4.99982 25.8577V22.9005ZM4.99982 19.0322L10.1398 20.4361L8.05978 22.5072L4.99982 22.1537V19.0322ZM4.99982 13.6106L12.7997 17.7876L10.7747 19.8039L4.99982 18.2406V13.6106ZM4.99982 9.88176C5.00101 8.97037 5.25726 8.07735 5.73981 7.3029L15.0447 15.5622L13.3747 17.23L4.99982 12.7394V9.88176ZM9.93976 4.97795H11.5547L17.3847 13.2323L15.6047 15.0096L6.2098 6.68059C6.67205 6.14648 7.24453 5.7179 7.88822 5.42407C8.5319 5.13024 9.23165 4.97808 9.93976 4.97795V4.97795ZM17.4997 4.97795L19.8696 10.7729L17.9497 12.6747L12.4997 4.97795H17.4997ZM21.5346 4.97795L22.3296 8.32349L20.4646 10.1755L18.3297 4.97795H21.5346ZM26.1546 4.97795C25.5074 5.31488 24.9157 5.748 24.3996 6.2624L22.9496 7.6962L22.3046 4.97795H26.1546ZM36.4544 4.97795L35.8444 7.54187L34.5494 6.2624C34.0334 5.748 33.4416 5.31488 32.7945 4.97795H36.4544ZM37.2344 4.97795H40.4294L38.3444 10.0411L36.4694 8.17414L37.2344 4.97795ZM46.2343 4.97795L40.8794 12.5652L38.9444 10.6385L41.2594 4.97795H46.2343ZM49.3093 4.97795C49.9605 4.97887 50.6051 5.10825 51.2058 5.35861C51.8066 5.60898 52.3515 5.97538 52.8092 6.43665L43.2443 14.9349L41.4394 13.1377L47.1943 4.97795H49.3093ZM49.3093 3.07617H9.93976C8.12386 3.07881 6.38309 3.79824 5.09906 5.07677C3.81502 6.35529 3.09249 8.08859 3.08984 9.89669V49.0973C3.09117 50.9058 3.81328 52.6398 5.0976 53.9187C6.38192 55.1975 8.12345 55.9165 9.93976 55.9178H17.2147L17.6297 56.0174L17.6697 55.9178H41.0794L41.1194 56.0174L41.5344 55.9178H49.3093C51.1256 55.9165 52.8671 55.1975 54.1514 53.9187C55.4357 52.6398 56.1579 50.9058 56.1592 49.0973V9.89669C56.1579 8.08818 55.4357 6.35412 54.1514 5.07531C52.8671 3.7965 51.1256 3.07749 49.3093 3.07617" fill="#EAB53E"/>
<path d="M57.3443 49.0978C57.3416 51.2188 56.4943 53.2522 54.988 54.752C53.4817 56.2518 51.4396 57.0956 49.3094 57.0982H9.93987C7.81016 57.0956 5.76851 56.2517 4.26304 54.7517C2.75757 53.2518 1.9113 51.2184 1.90998 49.0978V9.89722C1.9113 7.7771 2.75773 5.7442 4.26334 4.24505C5.76895 2.7459 7.81062 1.9031 9.93987 1.90178H49.3094C51.4391 1.9031 53.4813 2.74574 54.9877 4.24474C56.4941 5.74375 57.3416 7.77665 57.3443 9.89722V49.0978ZM49.3144 0H9.93987C7.30447 0.00263596 4.77776 1.04622 2.91425 2.90174C1.05073 4.75726 0.00264732 7.27313 0 9.89722L0 49.0978C0.00264479 51.7224 1.05057 54.2387 2.91394 56.095C4.77731 57.9514 7.30401 58.996 9.93987 59H49.3144C51.9502 58.996 54.4769 57.9514 56.3403 56.095C58.2037 54.2387 59.2516 51.7224 59.2543 49.0978V9.89722C59.2516 7.27313 58.2035 4.75726 56.34 2.90174C54.4765 1.04622 51.9498 0.00263596 49.3144 0" fill="#EAB53E"/>
<path d="M29.6247 39.1661C27.7043 39.1661 25.8269 38.5991 24.2302 37.5367C22.6334 36.4744 21.3888 34.9644 20.6539 33.1978C19.919 31.4311 19.7267 29.4872 20.1014 27.6117C20.476 25.7363 21.4008 24.0136 22.7588 22.6614C24.1167 21.3093 25.8468 20.3885 27.7304 20.0155C29.6139 19.6424 31.5662 19.8339 33.3405 20.5656C35.1147 21.2974 36.6312 22.5366 37.6981 24.1265C38.7651 25.7165 39.3346 27.5857 39.3346 29.4979C39.3319 32.0613 38.3081 34.5189 36.4877 36.3314C34.6673 38.144 32.1991 39.1635 29.6247 39.1661V39.1661ZM29.6247 18.1221C27.3639 18.1221 25.1538 18.7897 23.2741 20.0404C21.3943 21.2912 19.9293 23.0689 19.0644 25.1488C18.1994 27.2286 17.9734 29.5172 18.4148 31.725C18.8562 33.9328 19.9453 35.9606 21.5443 37.5521C23.1433 39.1435 25.1804 40.227 27.3979 40.6656C29.6154 41.1042 31.9137 40.8781 34.0022 40.0159C36.0906 39.1538 37.8754 37.6943 39.1307 35.8221C40.386 33.9499 41.0555 31.749 41.0545 29.4979C41.0506 26.4812 39.8449 23.5893 37.7021 21.4566C35.5593 19.3239 32.6544 18.1247 29.6247 18.1221" fill="#EAB53E"/>
<path d="M29.6244 41.8199C27.1769 41.8199 24.7844 41.0972 22.7493 39.7433C20.7143 38.3894 19.1282 36.465 18.1916 34.2135C17.2549 31.962 17.0099 29.4845 17.4874 27.0943C17.9648 24.7041 19.1434 22.5086 20.8741 20.7853C22.6047 19.0621 24.8097 17.8886 27.2102 17.4131C29.6107 16.9377 32.0989 17.1817 34.3601 18.1143C36.6213 19.0469 38.554 20.6262 39.9137 22.6525C41.2735 24.6788 41.9993 27.0611 41.9993 29.4981C41.9966 32.7653 40.692 35.8978 38.3718 38.208C36.0517 40.5182 32.9056 41.8172 29.6244 41.8199V41.8199ZM29.6244 15.5186C26.8464 15.5186 24.1308 16.3389 21.821 17.8757C19.5112 19.4126 17.7111 21.597 16.6482 24.1526C15.5853 26.7082 15.3075 29.5203 15.8498 32.2332C16.3922 34.9461 17.7303 37.4379 19.695 39.3934C21.6597 41.349 24.1627 42.6805 26.8875 43.2196C29.6122 43.7586 32.4363 43.481 35.0026 42.4217C37.5689 41.3625 39.762 39.5693 41.3047 37.2689C42.8474 34.9685 43.6702 32.2642 43.6692 29.4981C43.664 25.7913 42.1824 22.2378 39.5495 19.6171C36.9166 16.9965 33.3473 15.5225 29.6244 15.5186" fill="#EAB53E"/>
<path d="M37.5296 29.2685H30.9546V31.4241H34.7396C34.3208 32.6028 33.512 33.6047 32.4459 34.2653C31.3799 34.9258 30.1199 35.2059 28.8729 35.0593C27.6259 34.9128 26.466 34.3485 25.5836 33.459C24.7013 32.5695 24.1489 31.4076 24.0172 30.1643C23.8854 28.9209 24.1822 27.6699 24.8588 26.6167C25.5353 25.5634 26.5514 24.7705 27.7403 24.3682C28.9291 23.9658 30.22 23.9779 31.4011 24.4024C32.5821 24.827 33.5831 25.6388 34.2396 26.7045C34.8496 26.1768 35.5696 25.5595 36.1446 25.0865C35.0605 23.5145 33.446 22.3819 31.5944 21.8945C29.7428 21.4071 27.7771 21.5972 26.0544 22.4304C24.3317 23.2636 22.9663 24.6845 22.2065 26.435C21.4466 28.1854 21.3426 30.1492 21.9134 31.9695C22.4841 33.7898 23.6918 35.3458 25.317 36.3547C26.9421 37.3637 28.8769 37.7587 30.7697 37.4679C32.6624 37.1771 34.3876 36.2198 35.6318 34.77C36.8759 33.3202 37.5564 31.4741 37.5496 29.5672C37.5496 29.4576 37.5496 29.3531 37.5496 29.2436" fill="#EAB53E"/>
</svg>
