<svg width="21" height="27" viewBox="0 0 21 27" fill="none" xmlns="http://www.w3.org/2000/svg">
<path d="M20.32 18.28L18.24 27H0.2C0.306667 26.8933 0.866667 26.36 1.88 25.4C2.89333 24.4133 3.45333 23.8667 3.56 23.76C4.57333 22.8 5.54667 21.8 6.48 20.76C7.41333 19.6933 8.44 18.3867 9.56 16.84C10.68 15.2933 11.5733 13.6533 12.24 11.92C12.9333 10.16 13.28 8.46667 13.28 6.84C13.28 4.6 12.9867 3.09333 12.4 2.32C11.84 1.54667 10.8667 1.16 9.48 1.16C7.98667 1.16 6.65333 1.88 5.48 3.32C4.33333 4.73333 3.76 6.65333 3.76 9.08C3.76 10.0667 3.96 10.8933 4.36 11.56C4.78667 12.2 5.44 12.52 6.32 12.52C8 12.52 9.2 11.5067 9.92 9.48L10.28 9.64C9.96 11.0267 9.32 12.2 8.36 13.16C7.42667 14.0933 6.26667 14.56 4.88 14.56C3.46667 14.56 2.36 14.1067 1.56 13.2C0.76 12.2667 0.36 11.08 0.36 9.64C0.36 7.08 1.34667 4.86667 3.32 3C5.29333 1.13333 7.8 0.199999 10.84 0.199999C13.5067 0.199999 15.4667 0.853332 16.72 2.16C17.9733 3.44 18.6 5.21333 18.6 7.48C18.6 8.25333 18.48 9.04 18.24 9.84C18.0267 10.6133 17.7867 11.2933 17.52 11.88C17.28 12.44 16.8533 13.0933 16.24 13.84C15.6533 14.56 15.2133 15.0933 14.92 15.44C14.6267 15.7867 14.08 16.3067 13.28 17C12.48 17.6667 12 18.0667 11.84 18.2C11.7067 18.3067 11.2533 18.6667 10.48 19.28L6.12 22.56V22.64H14.8C16.4267 22.64 17.5867 22.1867 18.28 21.28C19.0533 20.32 19.6267 19.32 20 18.28H20.32Z" fill="white"/>
</svg>
