<svg width="19" height="28" viewBox="0 0 19 28" fill="none" xmlns="http://www.w3.org/2000/svg">
<path d="M18.64 18.84C18.64 21.2133 17.7333 23.2667 15.92 25C14.1067 26.7067 11.4533 27.56 7.96 27.56C5.66667 27.56 3.90667 27.0133 2.68 25.92C1.48 24.8 0.88 23.52 0.88 22.08C0.88 21.2533 1.08 20.6267 1.48 20.2C1.90667 19.7467 2.46667 19.52 3.16 19.52C3.90667 19.52 4.48 19.7467 4.88 20.2C5.30667 20.6267 5.52 21.2133 5.52 21.96C5.52 22.28 5.45333 22.8667 5.32 23.72C5.32 24.44 5.37333 25 5.48 25.4C5.77333 26.4133 6.42667 26.92 7.44 26.92C9.17333 26.92 10.6133 26.08 11.76 24.4C12.9333 22.6933 13.52 20.6133 13.52 18.16C13.52 14.9333 11.9467 13.32 8.8 13.32C8.02667 13.32 7.33333 13.5067 6.72 13.88L5.4 14.64L5.08 14.12L7.52 12.68C10.5333 10.84 12.04 8.30667 12.04 5.08C12.04 3.64 11.7467 2.62666 11.16 2.04C10.6 1.42667 9.70667 1.12 8.48 1.12C7.44 1.12 6.58667 1.49333 5.92 2.24C5.28 2.96 4.96 3.96 4.96 5.24C4.96 6.12 5.18667 6.85333 5.64 7.44C6.12 8.02667 6.70667 8.32 7.4 8.32C8.12 8.32 8.68 8.22667 9.08 8.04C9.48 7.82667 9.84 7.42667 10.16 6.84L10.48 7C9.62667 9.21333 8.16 10.32 6.08 10.32C4.85333 10.32 3.88 9.92 3.16 9.12C2.44 8.29333 2.08 7.33333 2.08 6.24C2.08 4.48 2.84 3.04 4.36 1.92C5.90667 0.773332 7.62667 0.199999 9.52 0.199999C14.32 0.199999 16.72 1.93333 16.72 5.4C16.72 8.22667 14.2133 10.5467 9.2 12.36V12.48C12.0267 12.5067 14.3067 13.0933 16.04 14.24C17.7733 15.36 18.64 16.8933 18.64 18.84Z" fill="white"/>
</svg>
