<svg width="11" height="27" viewBox="0 0 11 27" fill="none" xmlns="http://www.w3.org/2000/svg">
<path d="M11 27H0.36V26.8C0.946667 26.8 1.41333 26.7333 1.76 26.6C2.18667 26.44 2.49333 26.2667 2.68 26.08C2.86667 25.8667 3.01333 25.4933 3.12 24.96C3.25333 24.4 3.32 23.3333 3.32 21.76V5.6C3.32 4.48 3.28 3.6 3.2 2.96C3.14667 2.32 2.90667 1.88 2.48 1.64C2.24 1.48 1.50667 1.33333 0.28 1.2V0.999999C1.16 0.973332 2.82667 0.839999 5.28 0.599999C6.93333 0.466666 7.78667 0.399999 7.84 0.399999C8.02667 0.399999 8.12 0.493332 8.12 0.679998C8.12 0.839999 8.10667 1.21333 8.08 1.8C8.05333 2.36 8.04 2.82667 8.04 3.2V21.76C8.04 23.44 8.09333 24.5067 8.2 24.96C8.30667 25.4667 8.45333 25.8267 8.64 26.04C8.82667 26.2267 9.14667 26.4133 9.6 26.6L11 26.8V27Z" fill="white"/>
</svg>
