<svg width="29" height="30" viewBox="0 0 29 30" fill="none" xmlns="http://www.w3.org/2000/svg">
<path d="M14.5001 15.0386C6.85782 15.0386 0.640137 21.4707 0.640137 29.3765C0.640137 29.7206 0.910125 29.9999 1.24277 29.9999C1.57541 29.9999 1.84539 29.7206 1.84539 29.3765C1.84539 22.1577 7.52197 16.2853 14.5002 16.2853C21.4784 16.2853 27.155 22.1577 27.155 29.3765C27.155 29.7206 27.425 29.9999 27.7576 29.9999C28.0903 29.9999 28.3602 29.7206 28.3602 29.3765C28.3602 21.4694 22.1424 15.0386 14.5001 15.0386Z" fill="white"/>
<path d="M14.4998 0C10.8455 0 7.87109 3.07578 7.87109 6.85726C7.87109 10.6387 10.8456 13.7145 14.4998 13.7145C18.154 13.7145 21.1285 10.6387 21.1285 6.85726C21.1285 3.07578 18.154 0 14.4998 0ZM14.4998 12.4678C11.5096 12.4678 9.07629 9.95052 9.07629 6.85726C9.07629 3.764 11.5096 1.24676 14.4998 1.24676C17.4899 1.24676 19.9233 3.764 19.9233 6.85726C19.9233 9.95052 17.4899 12.4678 14.4998 12.4678Z" fill="white"/>
</svg>
