<svg width="60" height="55" viewBox="0 0 60 55" fill="none" xmlns="http://www.w3.org/2000/svg">
<path d="M49.86 0.335099C49.7372 0.2463 49.598 0.182347 49.4502 0.146909C49.3024 0.111471 49.149 0.105246 48.9988 0.128592C48.8485 0.151938 48.7045 0.204395 48.5748 0.282952C48.4451 0.361508 48.3324 0.464619 48.2431 0.586364L9.89333 52.2252C9.71159 52.4695 9.63545 52.7752 9.68166 53.0751C9.72786 53.375 9.89263 53.6444 10.1397 53.8241C10.3868 54.0038 10.6959 54.0791 10.9991 54.0334C11.3024 53.9878 11.5748 53.8248 11.7565 53.5805L50.1063 1.94167C50.2889 1.69625 50.3655 1.3892 50.3193 1.08797C50.2731 0.786735 50.1079 0.515952 49.86 0.335099Z" fill="white"/>
<path d="M48.5049 30.2051C42.153 30.2051 36.9561 35.5349 36.9561 42.1821C36.9561 48.8292 42.1222 54.1666 48.5049 54.1666C54.8875 54.1666 60.0537 48.7911 60.0537 42.1821C60.0537 35.573 54.8336 30.2051 48.5049 30.2051ZM48.5049 51.8672C43.408 51.8672 39.2658 47.5271 39.2658 42.1821C39.2658 36.837 43.408 32.4969 48.5049 32.4969C53.6018 32.4969 57.7439 36.8446 57.7439 42.1821C57.7439 47.5195 53.5556 51.8672 48.5049 51.8672Z" fill="white"/>
<path d="M23.0361 11.9846C23.0361 5.37555 17.8699 0 11.5488 0C5.22777 0 0 5.37555 0 11.9846C0 18.5936 5.16617 23.9616 11.5488 23.9616C17.9315 23.9616 23.0361 18.586 23.0361 11.9846ZM2.30976 11.9846C2.30976 6.63949 6.44424 2.28423 11.5488 2.28423C16.6534 2.28423 20.7879 6.63188 20.7879 11.977C20.7879 17.3221 16.5918 21.6697 11.5488 21.6697C6.50584 21.6697 2.30976 17.3221 2.30976 11.9846Z" fill="white"/>
</svg>
