<svg width="60" height="71" viewBox="0 0 60 71" fill="none" xmlns="http://www.w3.org/2000/svg">
<path d="M59.9667 63.2966L54.0392 23.1528V23.0444C53.7891 19.1759 50.8546 16.0994 47.2364 16.0994H41.5507V11.5473C41.4698 8.53745 40.2174 5.67802 38.0601 3.57775C35.9027 1.47748 33.0108 0.302246 30 0.302246C26.9893 0.302246 24.0974 1.47748 21.94 3.57775C19.7827 5.67802 18.5303 8.53745 18.4494 11.5473V16.0994H12.7637C9.17053 16.0994 6.21096 19.1759 5.97753 23.0444V23.1528L3.85642e-05 63.2966C-0.0123826 63.4548 -0.0123826 63.6137 3.85642e-05 63.7718V63.8885C-0.057487 65.5629 0.424762 67.2114 1.37561 68.5908C1.92774 69.3523 2.65578 69.9692 3.4977 70.3887C4.33962 70.8083 5.27048 71.0181 6.21096 71.0002H53.7891C54.7296 71.0181 55.6604 70.8083 56.5024 70.3887C57.3443 69.9692 58.0723 69.3523 58.6245 68.5908C59.588 67.2163 60.0795 65.5662 60.025 63.8885V63.7718C60.0181 63.6121 59.9986 63.4532 59.9667 63.2966ZM30.0125 2.5014C32.408 2.50801 34.7032 3.46372 36.3954 5.1592C38.0877 6.85468 39.0391 9.15175 39.0413 11.5473V16.0994H20.9671V11.5473C20.9693 9.14886 21.923 6.84928 23.6189 5.15332C25.3148 3.45736 27.6142 2.50361 30.0125 2.5014ZM57.524 63.8885C57.5775 65.029 57.2649 66.1566 56.632 67.1067C56.3128 67.5498 55.8897 67.9078 55.3998 68.1491C54.9099 68.3904 54.3683 68.5077 53.8225 68.4907H6.21096C5.66514 68.5077 5.12351 68.3904 4.63364 68.1491C4.14376 67.9078 3.72065 67.5498 3.40146 67.1067C2.76559 66.1576 2.45008 65.0299 2.50108 63.8885V63.7718C2.50108 63.7718 2.50108 63.6968 2.50108 63.6634L8.43689 23.4862C8.43689 23.4862 8.43689 23.4862 8.43689 23.4279V23.2611V23.2111C8.58695 20.6349 10.4627 18.6173 12.722 18.6173H18.4077V26.9962C18.4432 27.303 18.5902 27.5861 18.8208 27.7915C19.0514 27.997 19.3494 28.1105 19.6582 28.1105C19.9671 28.1105 20.2651 27.997 20.4957 27.7915C20.7263 27.5861 20.8733 27.303 20.9087 26.9962V18.6173H39.0413V26.9962C39.0768 27.303 39.2238 27.5861 39.4544 27.7915C39.6849 27.997 39.983 28.1105 40.2918 28.1105C40.6006 28.1105 40.8987 27.997 41.1293 27.7915C41.3598 27.5861 41.5069 27.303 41.5423 26.9962V18.6173H47.228C49.4873 18.6173 51.3965 20.6349 51.5132 23.2111V23.2611V23.4279C51.5132 23.4279 51.5132 23.4279 51.5132 23.4862L57.4323 63.5551V63.6634C57.4323 63.6634 57.4323 63.7385 57.4323 63.7718L57.524 63.8885Z" fill="white"/>
</svg>
