<svg width="60" height="60" viewBox="0 0 60 60" fill="none" xmlns="http://www.w3.org/2000/svg">
<path d="M45.691 7.34621C44.0798 7.34468 42.518 7.90195 41.2717 8.92303C40.0255 9.94411 39.1719 11.3658 38.8564 12.9458C38.541 14.5258 38.7833 16.1662 39.542 17.5876C40.3006 19.0089 41.5288 20.1232 43.017 20.7404C44.5052 21.3576 46.1615 21.4396 47.7034 20.9724C49.2453 20.5053 50.5775 19.5178 51.4729 18.1783C52.3683 16.8389 52.7714 15.2304 52.6136 13.627C52.4558 12.0235 51.7468 10.5245 50.6075 9.38528C49.9634 8.73739 49.1973 8.22359 48.3534 7.8736C47.5095 7.5236 46.6046 7.34435 45.691 7.34621ZM49.0942 17.7121C48.3049 18.4957 47.2685 18.9816 46.1613 19.0871C45.0542 19.1926 43.9446 18.9111 43.0216 18.2906C42.0986 17.6701 41.4192 16.7489 41.099 15.6838C40.7787 14.6187 40.8375 13.4755 41.2653 12.4489C41.693 11.4222 42.4634 10.5755 43.4451 10.0529C44.4269 9.53035 45.5594 9.36414 46.65 9.58259C47.7405 9.80105 48.7216 10.3907 49.4263 11.2511C50.1311 12.1115 50.5158 13.1896 50.5152 14.3018C50.5167 14.9361 50.3919 15.5644 50.1479 16.15C49.9039 16.7355 49.5457 17.2666 49.0942 17.7121Z" fill="white"/>
<path d="M57.0728 9.70151e-06H34.8561C34.1164 -0.00190757 33.4042 0.280418 32.8667 0.788642L32.682 0.959157L0.902252 32.7389C0.616114 33.0241 0.389079 33.3629 0.234167 33.736C0.0792544 34.109 -0.000488281 34.509 -0.000488281 34.913C-0.000488281 35.3169 0.0792544 35.7169 0.234167 36.09C0.389079 36.4631 0.616114 36.8019 0.902252 37.087L22.9271 59.1119C23.2129 59.3983 23.5523 59.6255 23.926 59.7805C24.2996 59.9355 24.7002 60.0153 25.1047 60.0153C25.5093 60.0153 25.9099 59.9355 26.2835 59.7805C26.6572 59.6255 26.9966 59.3983 27.2824 59.1119L59.0337 27.3251L59.2113 27.1332C59.7158 26.5934 59.9976 25.8828 59.9999 25.1439V2.92008C59.9981 2.14498 59.6888 1.40226 59.1401 0.854846C58.5913 0.30743 57.8479 7.41834e-06 57.0728 9.70151e-06ZM57.8543 25.1439C57.8544 25.2428 57.835 25.3408 57.7972 25.4322C57.7594 25.5237 57.704 25.6067 57.6341 25.6767L57.5772 25.7478L57.5204 25.8046L25.7477 57.5844C25.5708 57.7592 25.3321 57.8573 25.0834 57.8573C24.8347 57.8573 24.596 57.7592 24.4191 57.5844L2.39426 35.5595C2.31002 35.4744 2.24344 35.3734 2.19833 35.2625C2.15322 35.1515 2.13047 35.0327 2.13138 34.913C2.13162 34.79 2.15624 34.6683 2.2038 34.5549C2.25136 34.4415 2.32092 34.3386 2.40847 34.2522L34.1882 2.47248L34.2522 2.42274L34.3161 2.3588C34.4598 2.21587 34.6534 2.13435 34.8561 2.13145H57.0728C57.28 2.13145 57.4788 2.21379 57.6254 2.36035C57.772 2.50692 57.8543 2.7057 57.8543 2.91298V25.1439Z" fill="white"/>
<path d="M36.0995 32.2132L13.5915 35.659C13.3089 35.6797 13.046 35.8119 12.8608 36.0264C12.6756 36.2409 12.5832 36.5202 12.6039 36.8028C12.6247 37.0855 12.7568 37.3483 12.9713 37.5335C13.1859 37.7187 13.4652 37.8111 13.7478 37.7904H13.9112L36.4192 34.3446C36.6998 34.3008 36.9515 34.1476 37.1193 33.9186C37.2871 33.6895 37.3573 33.4033 37.3144 33.1226C37.2962 32.9823 37.2501 32.847 37.1787 32.7249C37.1074 32.6027 37.0122 32.4961 36.899 32.4113C36.7857 32.3265 36.6566 32.2653 36.5193 32.2313C36.382 32.1973 36.2392 32.1911 36.0995 32.2132Z" fill="white"/>
<path d="M22.4727 40.0498C22.011 40.4877 21.6407 41.0127 21.3831 41.5946C21.1255 42.1764 20.9857 42.8035 20.9718 43.4397C20.958 44.0758 21.0703 44.7084 21.3023 45.3009C21.5343 45.8934 21.8813 46.4341 22.3235 46.8917C22.753 47.3132 23.2616 47.6457 23.82 47.87C24.3785 48.0944 24.9757 48.2062 25.5775 48.199H25.7125C26.9927 48.1572 28.2099 47.6332 29.1203 46.7321C30.0307 45.8309 30.567 44.6191 30.6219 43.3393C30.6447 42.7108 30.5379 42.0842 30.3081 41.4988C30.0783 40.9133 29.7304 40.3814 29.2862 39.9361C28.3669 39.0491 27.1332 38.5629 25.8559 38.5842C24.5786 38.6055 23.3619 39.1326 22.4727 40.0498ZM28.4762 43.247C28.4526 43.9827 28.1444 44.6806 27.6165 45.1937C27.1035 45.7216 26.4056 46.0297 25.6698 46.0534C25.3319 46.067 24.9948 46.011 24.6794 45.8887C24.3641 45.7665 24.0773 45.5807 23.8368 45.3429C23.3747 44.8107 23.1316 44.1232 23.1564 43.4189C23.1811 42.7146 23.472 42.0458 23.9704 41.5475C24.4687 41.0492 25.1374 40.7583 25.8418 40.7335C26.5461 40.7087 27.2336 40.9519 27.7657 41.4139C28.005 41.6534 28.1917 41.94 28.314 42.2556C28.4363 42.5712 28.4916 42.9088 28.4762 43.247Z" fill="white"/>
<path d="M23.993 31.4244H24.1564C25.4377 31.3769 26.6536 30.8466 27.5602 29.94C28.4667 29.0335 28.997 27.8176 29.0445 26.5363C29.0683 25.9066 28.962 25.2787 28.7322 24.6919C28.5024 24.1052 28.154 23.5721 27.7088 23.126C26.7764 22.2531 25.5412 21.7768 24.2641 21.7975C22.987 21.8183 21.7679 22.3345 20.8643 23.2372C19.9607 24.1399 19.4432 25.3584 19.4211 26.6355C19.3991 27.9126 19.8742 29.1483 20.7461 30.0816C21.1724 30.508 21.6786 30.8462 22.2358 31.0766C22.7929 31.307 23.3901 31.4252 23.993 31.4244ZM22.3873 24.7886C22.9249 24.2454 23.6551 23.9364 24.4193 23.9289C24.7443 23.9254 25.0667 23.9864 25.3679 24.1084C25.6691 24.2303 25.9432 24.4108 26.1742 24.6394C26.411 24.8806 26.5961 25.1675 26.7183 25.4827C26.8404 25.7978 26.8971 26.1346 26.8847 26.4724C26.8582 27.2177 26.5503 27.9252 26.0229 28.4526C25.4956 28.9799 24.788 29.2878 24.0428 29.3143C23.705 29.3267 23.3682 29.2701 23.0531 29.1479C22.7379 29.0257 22.4509 28.8406 22.2097 28.6038C21.969 28.3426 21.7825 28.0362 21.661 27.7024C21.5396 27.3686 21.4855 27.014 21.502 26.6591C21.5186 26.3043 21.6053 25.9562 21.7573 25.6351C21.9092 25.3141 22.1234 25.0263 22.3873 24.7886Z" fill="white"/>
</svg>
