<svg width="60" height="43" viewBox="0 0 60 43" fill="none" xmlns="http://www.w3.org/2000/svg">
<path d="M57.2711 0H2.72892C2.00516 0 1.31105 0.289487 0.799282 0.804778C0.28751 1.32007 0 2.01895 0 2.74768L0 39.5681C0 39.9289 0.0705855 40.2862 0.207727 40.6196C0.344867 40.953 0.545878 41.2559 0.799282 41.511C1.05269 41.7662 1.35352 41.9685 1.68461 42.1066C2.01569 42.2447 2.37055 42.3158 2.72892 42.3158H57.2711C57.6295 42.3158 57.9843 42.2447 58.3154 42.1066C58.6465 41.9685 58.9473 41.7662 59.2007 41.511C59.4541 41.2559 59.6551 40.953 59.7923 40.6196C59.9294 40.2862 60 39.9289 60 39.5681V2.74768C60 2.01895 59.7125 1.32007 59.2007 0.804778C58.6889 0.289487 57.9948 0 57.2711 0V0ZM2.72892 2.18649H57.2711C57.417 2.18649 57.5569 2.24484 57.6601 2.34872C57.7633 2.4526 57.8212 2.59349 57.8212 2.7404V12.4265H2.17155V2.74768C2.17058 2.67371 2.18433 2.6003 2.212 2.53177C2.23966 2.46324 2.28068 2.40098 2.33263 2.34867C2.38458 2.29637 2.44642 2.25506 2.51448 2.22721C2.58254 2.19935 2.65545 2.18551 2.72892 2.18649ZM57.2711 40.0856H2.72892C2.58783 40.0877 2.45131 40.0353 2.34757 39.9389C2.24383 39.8426 2.18082 39.7099 2.17155 39.5681V14.6203H57.8212V39.5681C57.8212 39.715 57.7633 39.8559 57.6601 39.9598C57.5569 40.0637 57.417 40.122 57.2711 40.122V40.0856Z" fill="white"/>
<path d="M25.9643 31.7695H10.8576C10.5912 31.8005 10.3455 31.929 10.1671 32.1306C9.9887 32.3322 9.89014 32.5928 9.89014 32.8627C9.89014 33.1327 9.9887 33.3933 10.1671 33.5949C10.3455 33.7964 10.5912 33.925 10.8576 33.956H25.9643C26.1174 33.9738 26.2726 33.9588 26.4195 33.912C26.5665 33.8652 26.702 33.7877 26.817 33.6844C26.9321 33.5812 27.0242 33.4546 27.0873 33.313C27.1503 33.1714 27.1829 33.0179 27.1829 32.8627C27.1829 32.7075 27.1503 32.5541 27.0873 32.4125C27.0242 32.2709 26.9321 32.1443 26.817 32.0411C26.702 31.9378 26.5665 31.8602 26.4195 31.8134C26.2726 31.7666 26.1174 31.7517 25.9643 31.7695Z" fill="white"/>
<path d="M44.9657 23.7374C43.8188 23.7302 42.6957 24.066 41.7387 24.7023C40.7816 25.3386 40.0338 26.2466 39.5899 27.3114C39.1461 28.3761 39.0262 29.5496 39.2456 30.683C39.4649 31.8165 40.0135 32.8588 40.8219 33.6779C41.6303 34.4969 42.6621 35.0559 43.7864 35.2838C44.9107 35.5118 46.0768 35.3985 47.1371 34.9582C48.1973 34.518 49.1039 33.7707 49.7418 32.8111C50.3797 31.8515 50.7203 30.7228 50.7203 29.568C50.7203 28.028 50.1152 26.5504 49.037 25.458C47.9588 24.3656 46.4952 23.747 44.9657 23.7374ZM44.9657 33.132C44.2584 33.132 43.5671 32.9209 42.9791 32.5252C42.391 32.1296 41.9327 31.5673 41.662 30.9094C41.3914 30.2515 41.3206 29.5276 41.4586 28.8292C41.5965 28.1308 41.9371 27.4893 42.4372 26.9857C42.9373 26.4822 43.5744 26.1393 44.2681 26.0004C44.9617 25.8615 45.6807 25.9328 46.3341 26.2053C46.9875 26.4778 47.5459 26.9392 47.9389 27.5313C48.3318 28.1234 48.5415 28.8195 48.5415 29.5316C48.5415 30.0044 48.449 30.4726 48.2693 30.9094C48.0896 31.3462 47.8262 31.7432 47.4942 32.0775C47.1621 32.4118 46.7679 32.677 46.3341 32.858C45.9002 33.0389 45.4353 33.132 44.9657 33.132Z" fill="white"/>
</svg>
