<svg width="34" height="30" viewBox="0 0 34 30" fill="none" xmlns="http://www.w3.org/2000/svg">
<g clip-path="url(#clip0)">
<path d="M29.8082 17.7597L33.4126 8.23511C33.4988 8.00787 33.5287 7.76299 33.4996 7.52157C33.4706 7.28016 33.3835 7.04947 33.2458 6.8494C33.1082 6.64934 32.9242 6.48589 32.7096 6.37318C32.495 6.26046 32.2564 6.20185 32.0142 6.2024H8.8317L7.01723 1.40674C6.90976 1.12114 6.71858 0.874966 6.46891 0.700722C6.21925 0.526477 5.92284 0.432348 5.6188 0.430757H0.528504C0.454553 0.422168 0.379629 0.429382 0.30865 0.451926C0.237671 0.47447 0.172243 0.511834 0.116661 0.561566C0.0610789 0.611297 0.0165996 0.672271 -0.013857 0.740485C-0.0443135 0.808699 -0.0600586 0.88261 -0.0600586 0.957367C-0.0600586 1.03212 -0.0443135 1.10603 -0.013857 1.17425C0.0165996 1.24246 0.0610789 1.30344 0.116661 1.35317C0.172243 1.4029 0.237671 1.44026 0.30865 1.46281C0.379629 1.48535 0.454553 1.49257 0.528504 1.48398H5.6188C5.70888 1.48479 5.79659 1.51309 5.87027 1.56514C5.94395 1.61718 6.00013 1.69051 6.03134 1.77537L7.93321 6.80625C7.93321 6.84135 7.93321 6.87997 7.96117 6.91508L12.2998 18.3881C12.3157 18.4247 12.3344 18.4599 12.3557 18.4935L14.2401 23.4717C13.5664 23.5663 12.9434 23.8837 12.4694 24.3738C11.9955 24.8638 11.6977 25.4985 11.6232 26.1775C11.5487 26.8565 11.7017 27.541 12.058 28.1229C12.4143 28.7048 12.9536 29.1509 13.5906 29.3906C14.2276 29.6302 14.926 29.6499 15.5753 29.4463C16.2247 29.2428 16.788 28.8277 17.1761 28.2667C17.5642 27.7058 17.7551 27.0308 17.7185 26.3487C17.6819 25.6666 17.42 25.0162 16.9741 24.5003H26.4135C25.9295 25.0549 25.6635 25.7676 25.6653 26.505C25.6654 27.1047 25.8406 27.6912 26.1694 28.1919C26.4982 28.6926 26.966 29.0854 27.5149 29.3217C28.0639 29.558 28.6697 29.6274 29.2576 29.5212C29.8454 29.4151 30.3892 29.1381 30.8218 28.7246C31.2544 28.3111 31.5566 27.7792 31.6911 27.1949C31.8256 26.6105 31.7864 25.9994 31.5784 25.4373C31.3704 24.8751 31.0027 24.3865 30.5208 24.0322C30.039 23.6778 29.4642 23.4731 28.8677 23.4436H15.6595C15.5703 23.4433 15.4832 23.4161 15.4096 23.3653C15.336 23.3146 15.2793 23.2428 15.247 23.1592L13.5724 18.7287H28.4132C28.716 18.7274 29.0112 18.6342 29.2602 18.4612C29.5092 18.2883 29.7002 18.0437 29.8082 17.7597ZM32.3778 7.45222C32.419 7.51137 32.445 7.5798 32.4535 7.65144C32.462 7.72309 32.4529 7.79575 32.4268 7.86298L28.8258 17.3841C28.7936 17.468 28.7371 17.5403 28.6635 17.5916C28.59 17.643 28.5028 17.6709 28.4132 17.672H13.1703L9.23375 7.25913H32.0177C32.089 7.25884 32.1592 7.27633 32.222 7.31003C32.2849 7.34374 32.3384 7.3926 32.3778 7.45222ZM14.6841 28.5166C14.2886 28.5166 13.902 28.3988 13.5731 28.1782C13.2443 27.9575 12.988 27.6439 12.8366 27.277C12.6852 26.91 12.6456 26.5062 12.7228 26.1167C12.8 25.7272 12.9904 25.3693 13.2701 25.0885C13.5498 24.8077 13.9061 24.6164 14.294 24.5389C14.6819 24.4614 15.084 24.5012 15.4494 24.6532C15.8148 24.8052 16.1271 25.0626 16.3469 25.3928C16.5666 25.723 16.6839 26.1113 16.6839 26.5085C16.683 27.0408 16.472 27.551 16.0972 27.9274C15.7223 28.3038 15.2142 28.5157 14.6841 28.5166ZM30.7381 26.5085C30.7388 26.9058 30.6221 27.2944 30.4028 27.6251C30.1835 27.9558 29.8714 28.2137 29.5061 28.3663C29.1407 28.5188 28.7385 28.559 28.3504 28.482C27.9623 28.4049 27.6056 28.2139 27.3256 27.9332C27.0456 27.6525 26.8548 27.2947 26.7773 26.905C26.6999 26.5154 26.7393 26.1115 26.8905 25.7443C27.0418 25.3772 27.2981 25.0633 27.627 24.8425C27.9559 24.6217 28.3427 24.5038 28.7384 24.5038C29.2648 24.5085 29.7683 24.721 30.1399 25.0955C30.5115 25.47 30.7214 25.9763 30.7242 26.505L30.7381 26.5085Z" fill="white"/>
</g>
<defs>
<clipPath id="clip0">
<rect width="33.5099" height="29.1391" fill="white" transform="translate(0 0.430664)"/>
</clipPath>
</defs>
</svg>
