<svg width="274" height="41" viewBox="0 0 274 41" fill="none" xmlns="http://www.w3.org/2000/svg">
<path d="M64.7085 22.0412H68.3859C69.5224 22.0412 69.6151 22.1311 69.6185 23.304L69.6357 27.5074C68.7635 28.6145 67.3901 29.8426 64.5403 29.853C60.0561 29.853 56.5504 26.0682 56.3822 21.0137C56.2826 18.3463 57.0689 15.9834 58.5694 14.3608C59.2229 13.6646 60.0078 13.1068 60.878 12.7201C61.7483 12.3333 62.6863 12.1255 63.6373 12.1086C65.8107 12.0463 67.6889 12.6795 68.9318 13.8903C69.3193 14.2478 69.6318 14.68 69.8506 15.1614C70.0694 15.6427 70.1901 16.1634 70.2056 16.6926V18.0453H71.167L71.143 11.0361H70.1816V12.0187C70.1986 12.424 70.1837 12.83 70.137 13.233C69.8657 13.1264 69.6113 12.9808 69.3816 12.8005C67.7422 11.6256 65.7686 11.0186 63.7574 11.0707C62.3914 11.078 61.0407 11.3624 59.786 11.9068C58.5313 12.4513 57.3982 13.2447 56.4543 14.2397C55.5253 15.2175 54.8041 16.3759 54.3347 17.6441C53.8654 18.9124 53.6578 20.2638 53.7246 21.6157C53.795 22.9264 54.1452 24.2064 54.7514 25.3683C55.3576 26.5302 56.2054 27.5466 57.2371 28.3481C59.3263 29.9883 61.9022 30.8729 64.5506 30.8598C66.698 30.9019 68.7891 30.1653 70.4426 28.784C71.0709 28.2581 71.1052 28.9258 71.1052 29.2407V30.6626H72.0391L72.0151 23.2694C72.0151 22.1 72.101 22.0031 73.2375 21.9997H73.6529V21.0656L64.7051 21.1036V22.0481" fill="#EAB53E"/>
<path d="M87.7919 12.0428C92.4718 12.0256 95.5037 15.5025 95.5243 20.8718C95.5449 26.2411 92.5336 29.7527 87.8537 29.7527C83.1738 29.7527 80.1386 26.293 80.1214 20.9272C80.1042 15.5613 83.112 12.0601 87.7919 12.0428ZM87.7919 11.005C81.7695 11.0257 77.5771 15.115 77.5977 20.9479C77.6183 26.7808 81.8347 30.7905 87.8572 30.7905C93.8796 30.7905 98.0719 26.6909 98.0513 20.8753C98.0307 15.0596 93.8109 10.9842 87.7885 11.005" fill="#EAB53E"/>
<path d="M114.776 27.7254C114.776 29.0815 114.502 29.4759 113.526 29.4794L105.533 29.5071L105.475 13.3541C105.475 12.1813 105.564 12.0879 106.704 12.0844H107.593V11.1157L100.905 11.1399V12.1086H101.794C102.934 12.1086 103.027 12.1986 103.03 13.3714L103.082 28.3689C103.082 29.5278 102.982 29.6351 101.856 29.6385H100.963V30.583L115.727 30.5311L115.71 24.0167H114.773V27.7219" fill="#EAB53E"/>
<path d="M123.879 12.1087H127.23C129.795 12.1087 135.759 12.9217 135.787 20.7577C135.814 28.5938 129.853 29.4068 127.292 29.4275H123.941L123.879 12.1087ZM127.704 11.0466L119.333 11.0708V12.0395H120.198C121.338 12.0395 121.431 12.1294 121.434 13.3022L121.486 28.2962C121.486 29.4552 121.386 29.559 120.26 29.5625H119.395V30.5069L127.766 30.4758C134.138 30.455 138.41 26.5353 138.386 20.7197C138.362 14.904 134.07 11.0327 127.697 11.0327" fill="#EAB53E"/>
<path d="M155.622 27.5798C155.622 28.9637 155.364 29.3304 154.4 29.3339L146.406 29.3615L146.375 21.0584H151.371C152.336 21.0584 152.631 21.4874 152.635 22.9093V23.7812H153.596L153.576 17.2805H152.611V18.18C152.611 19.5985 152.326 20.0344 151.361 20.0379H146.365L146.338 12.0254L153.854 11.9977C154.839 11.9977 155.11 12.3713 155.117 13.7275V16.9519H156.055L156.031 10.9321L141.754 10.984V11.9527H142.647C143.787 11.9527 143.879 12.0427 143.883 13.2155L143.934 28.206C143.934 29.3685 143.835 29.4722 142.708 29.4757H141.816V30.4444L156.58 30.3925L156.57 24.3555H155.608V27.5764" fill="#EAB53E"/>
<path d="M175.008 10.8736V11.8423H175.897C177.332 11.8423 177.82 12.1468 177.823 13.0739L177.868 25.8745L165.84 10.9048L160.741 10.9221V11.8907H161.634C163.069 11.8907 163.557 12.1952 163.56 13.1224L163.612 28.1406C163.612 28.9432 163.303 29.4068 161.696 29.4137H160.803V30.3582L167.468 30.334V29.4068H166.575C164.971 29.4068 164.655 28.9502 164.652 28.1475L164.601 13.5202L177.967 30.1714L178.077 30.3098H178.929L178.87 13.0809C178.87 12.1675 179.368 11.8389 180.786 11.8354H181.676V10.8667L175.014 10.8909" fill="#EAB53E"/>
<path d="M209.834 24.6325C208.285 27.4832 205.614 29.0297 202.52 28.8809C198.524 28.6664 194.441 25.8434 194.314 20.0173C194.198 15.1462 197.171 11.5274 201.384 11.4098C203.599 11.3717 205.573 12.0325 206.812 13.2503C207.194 13.5994 207.502 14.0221 207.718 14.4934C207.935 14.9646 208.055 15.4748 208.073 15.9938V17.3777H209.034L209.01 10.3442H208.048V11.3475C208.067 11.7505 208.053 12.1542 208.007 12.5549C207.716 12.4396 207.439 12.2898 207.183 12.1086C205.587 11.04 203.722 10.4497 201.806 10.4065C200.453 10.3721 199.108 10.6222 197.857 11.1411C196.605 11.6599 195.475 12.436 194.537 13.4198C193.584 14.4059 192.842 15.5784 192.356 16.8648C191.87 18.1513 191.651 19.5244 191.712 20.8996C191.756 22.1672 192.061 23.4119 192.606 24.5551C193.151 25.6983 193.926 26.7153 194.881 27.542C196.772 29.1482 199.136 30.0798 201.607 30.1921C201.81 30.1921 202.005 30.1921 202.205 30.1921C205.755 30.1921 208.811 28.3377 210.651 25.0719L210.83 24.757L210.009 24.2865L209.834 24.6117" fill="#EAB53E"/>
<path d="M218.572 22.7022L221.807 14.1847L225.436 22.6746L218.572 22.7022ZM230.147 27.5872L223.005 10.7492L222.912 10.5278H222.105L215.626 27.6461C215.211 28.6839 214.888 29.0507 213.909 29.0541H213.096V29.9951H218.301V29.0403H217.412C216.697 29.0403 216.485 28.9503 216.43 28.8742C216.375 28.7981 216.347 28.594 216.601 27.9124L218.195 23.7609L225.906 23.7332L227.657 27.8848C227.823 28.2114 227.939 28.5613 228.001 28.9227C228.001 28.9227 227.87 29.0195 227.263 29.0195H226.37V29.964L232.825 29.9398V28.9884H232.169C230.988 28.9884 230.706 28.7946 230.164 27.5872" fill="#EAB53E"/>
<path d="M243.781 18.336C240.063 16.7999 239.352 15.5683 239.427 14.2225C239.599 11.4236 242.239 11.2368 243.362 11.2852C246.397 11.4132 248.142 12.9493 248.169 15.5025V16.8552H249.131L249.107 9.81836H248.145V10.5587C248.145 10.8562 248.145 11.1019 248.145 11.3025C248.145 11.5032 248.145 11.7212 248.145 11.8422C247.95 11.7604 247.762 11.6633 247.582 11.5516C246.317 10.7689 244.87 10.3347 243.386 10.2923C241.233 10.2197 237.848 11.4271 237.329 14.2709C236.814 17.0386 238.212 18.8134 242.312 20.5605C242.737 20.7439 243.166 20.9065 243.596 21.0898C246.264 22.1658 248.571 23.0964 248.372 25.5873C248.183 27.9295 246.264 29.2303 243.249 29.0677C239.705 28.8325 236.914 26.902 236.914 24.6601V23.3074H235.953L235.977 30.3408H236.914V29.3514C236.892 28.9378 236.909 28.5231 236.966 28.1129C237.307 28.2141 237.636 28.3558 237.944 28.5349C239.686 29.5037 241.637 30.0242 243.627 30.0502C247.156 30.0502 249.934 28.0229 250.387 25.1514C250.992 21.4773 248.269 20.1696 243.781 18.336Z" fill="#EAB53E"/>
<path d="M267.247 11.3406H268.136C269.276 11.3406 269.369 11.4305 269.372 12.5999L269.396 19.4257L258.546 19.4603V12.6345C258.546 11.4651 258.635 11.3682 259.772 11.3648H260.664V10.3788L254 10.403V11.3717H254.865C256.005 11.3717 256.098 11.4617 256.101 12.6345L256.143 27.6389C256.143 28.7978 256.043 28.9051 254.917 28.9085H254.051V29.8496L260.716 29.8253V28.8878H259.823C258.697 28.8878 258.594 28.784 258.591 27.625L258.546 20.4844L269.389 20.4463L269.413 27.5904C269.413 28.7494 269.314 28.8566 268.187 28.8601H267.295V29.8046L273.997 29.7838V28.8393H273.104C271.978 28.8393 271.875 28.739 271.872 27.58L271.82 12.586C271.82 11.4132 271.906 11.3198 273.046 11.3164H273.935V10.3477L267.243 10.3788V11.3475" fill="#EAB53E"/>
<path d="M34.1119 21.8475L21.5108 34.5444C21.3437 34.7132 21.1452 34.8471 20.9266 34.9385C20.708 35.0299 20.4737 35.077 20.237 35.077C20.0003 35.077 19.766 35.0299 19.5474 34.9385C19.3288 34.8471 19.1303 34.7132 18.9632 34.5444L6.36206 21.8475C6.02533 21.5065 5.83629 21.0451 5.83629 20.564C5.83629 20.083 6.02533 19.6215 6.36206 19.2805L18.9632 6.5733C19.3016 6.23401 19.7596 6.04354 20.237 6.04354C20.7144 6.04354 21.1724 6.23401 21.5108 6.5733L34.1119 19.2701C34.4487 19.6111 34.6377 20.0726 34.6377 20.5536C34.6377 21.0347 34.4487 21.4962 34.1119 21.8372V21.8475ZM35.8802 20.564C35.8813 20.1609 35.803 19.7616 35.6498 19.3892C35.4965 19.0168 35.2714 18.6788 34.9875 18.3948L22.3864 5.70148C22.1041 5.41643 21.7689 5.19028 21.3997 5.03597C21.0306 4.88167 20.6349 4.80225 20.2353 4.80225C19.8357 4.80225 19.44 4.88167 19.0708 5.03597C18.7017 5.19028 18.3664 5.41643 18.0842 5.70148L5.49337 18.3948C4.92265 18.9703 4.60205 19.7505 4.60205 20.564C4.60205 21.3775 4.92265 22.1578 5.49337 22.7332L18.0945 35.43C18.6659 36.0032 19.4393 36.325 20.2456 36.325C21.0519 36.325 21.8253 36.0032 22.3967 35.43L34.9978 22.7332C35.2817 22.4492 35.5068 22.1112 35.6601 21.7388C35.8133 21.3665 35.8916 20.9671 35.8905 20.564" fill="#EAB53E"/>
<path d="M37.257 8.66649L31.2449 11.9255L30.0843 10.7526L36.6081 4.88858C37.0217 5.4683 37.245 6.16388 37.2467 6.87787L37.257 8.66649ZM37.257 12.5828L33.0475 13.7452L31.6397 12.3268L37.257 9.28231V12.5828ZM37.257 15.3505L34.9256 15.6342L33.4835 14.1846L37.2604 13.1467L37.257 15.3505ZM37.257 18.3569C37.0199 17.8716 36.7055 17.4287 36.3265 17.0457L35.3926 16.1047L37.257 15.8798V18.3569ZM37.257 25.3073L35.3377 25.072L36.3265 24.0757C36.7063 23.6933 37.0207 23.2502 37.257 22.7645V25.3073ZM37.257 28.0473L33.432 26.9852L34.8673 25.5391L37.2707 25.8297L37.257 28.0473ZM37.257 31.9082L31.5882 28.8465L32.996 27.435L37.257 28.6112V31.9082ZM37.257 34.1155C37.256 34.8796 37.001 35.6214 36.5325 36.2224L30.0466 30.4102L31.2002 29.2443L37.257 32.5206V34.1155ZM33.8647 37.5371H32.2749L28.4328 32.0363L29.662 30.7908L36.1651 36.6237C35.5398 37.2092 34.7183 37.5354 33.8647 37.5371ZM28.2543 37.5371L26.7263 33.7557L28.0448 32.4237L31.6157 37.5405L28.2543 37.5371ZM25.5074 37.5371L25.0199 35.4613L26.304 34.1674L27.6774 37.5405L25.5074 37.5371ZM22.7331 37.5371C23.091 37.3248 23.421 37.0679 23.7151 36.7725L24.5838 35.8972L24.9684 37.5371H22.7331ZM17.6137 35.8868L5.02292 23.1969C4.33164 22.4984 3.94344 21.5523 3.94344 20.5659C3.94344 19.5795 4.33164 18.6333 5.02292 17.9348L17.624 5.23801C18.3168 4.54063 19.256 4.1489 20.2352 4.1489C21.2145 4.1489 22.1537 4.54063 22.8464 5.23801L32.0998 14.5582L35.4441 17.9279C36.1362 18.6259 36.525 19.5723 36.525 20.559C36.525 21.5456 36.1362 22.492 35.4441 23.19L22.843 35.8834C22.1502 36.5807 21.2111 36.9725 20.2318 36.9725C19.2525 36.9725 18.3133 36.5807 17.6206 35.8834L17.6137 35.8868ZM15.3544 37.5371L15.763 35.7899L16.7382 36.7725C17.0316 37.0687 17.3617 37.3256 17.7202 37.5371H15.3544ZM14.8154 37.5371H12.666L14.0669 34.0774L15.3373 35.361L14.8154 37.5371ZM12.0686 37.5371H8.72772L12.3604 32.3476L13.6651 33.6623L12.0686 37.5371ZM6.80493 37.5371C6.34283 37.5371 5.88562 37.4417 5.46159 37.2566C5.03755 37.0715 4.6557 36.8008 4.33965 36.4611L10.7501 30.732L11.9655 31.9567L8.06848 37.5405L6.80493 37.5371ZM3.43319 34.1189V32.3407L9.22558 29.1994L10.3655 30.348L4.02033 36.039C3.63658 35.4735 3.43188 34.804 3.43319 34.1189ZM3.43319 28.5144L7.447 27.4073L8.82042 28.7911L3.43319 31.7249V28.5144ZM3.43319 25.7985L5.58946 25.5356L7.01094 26.9852L3.43319 27.9574V25.7985ZM3.43319 23.1796C3.63406 23.5129 3.87383 23.8207 4.14737 24.0964L5.1225 25.0789L3.43319 25.2554V23.1796ZM3.43319 15.9144L5.06413 16.1116L4.14737 17.0388C3.8731 17.319 3.63332 17.6314 3.43319 17.9694V15.9144ZM3.43319 13.2263L6.96287 14.2019L5.53452 15.6411L3.43319 15.3955V13.2263ZM3.43319 9.45875L8.78952 12.3614L7.39893 13.7625L3.43319 12.6762V9.45875ZM3.43319 6.86749C3.43402 6.23415 3.60999 5.61358 3.94136 5.0754L10.3312 10.8149L9.18438 11.9739L3.43319 8.85331V6.86749ZM6.82553 3.45976H7.93457L11.9381 9.19582L10.7157 10.4309L4.26411 4.64295C4.58154 4.27179 4.97468 3.97396 5.41671 3.76977C5.85874 3.56559 6.33927 3.45985 6.82553 3.45976ZM12.017 3.45976L13.6445 7.48676L12.3261 8.80834L8.58351 3.45976H12.017ZM14.7879 3.45976L15.3338 5.78463L14.0531 7.07161L12.587 3.45976H14.7879ZM17.9605 3.45976C17.5161 3.6939 17.1097 3.99488 16.7553 4.35234L15.7596 5.34871L15.3167 3.45976H17.9605ZM25.0336 3.45976L24.6147 5.24147L23.7254 4.35234C23.371 3.99488 22.9646 3.6939 22.5202 3.45976H25.0336ZM25.5692 3.45976H27.7633L26.3315 6.9782L25.0439 5.68084L25.5692 3.45976ZM31.7496 3.45976L28.0723 8.73223L26.7435 7.39335L28.3332 3.45976H31.7496ZM33.8612 3.45976C34.3084 3.4604 34.7511 3.5503 35.1636 3.72429C35.5762 3.89827 35.9504 4.15289 36.2647 4.47343L29.6964 10.379L28.4568 9.13008L32.4088 3.45976H33.8612ZM33.8612 2.13818H6.82553C5.57853 2.14001 4.38311 2.63996 3.50134 3.52843C2.61958 4.41689 2.1234 5.62139 2.12158 6.87787V34.1189C2.12249 35.3757 2.61838 36.5807 3.50034 37.4694C4.38231 38.3581 5.57825 38.8577 6.82553 38.8586H11.8213L12.1063 38.9278L12.1338 38.8586H28.2096L28.2371 38.9278L28.5221 38.8586H33.8612C35.1085 38.8577 36.3045 38.3581 37.1864 37.4694C38.0684 36.5807 38.5643 35.3757 38.5652 34.1189V6.87787C38.5643 5.62111 38.0684 4.41608 37.1864 3.52742C36.3045 2.63875 35.1085 2.1391 33.8612 2.13818Z" fill="#EAB53E"/>
<path d="M39.3793 34.1188C39.3775 35.5927 38.7956 37.0058 37.7612 38.048C36.7268 39.0903 35.3244 39.6766 33.8616 39.6784H6.82588C5.36337 39.6766 3.96133 39.0901 2.9275 38.0478C1.89367 37.0055 1.31252 35.5924 1.31161 34.1188V6.87773C1.31252 5.40443 1.89378 3.99173 2.92771 2.94995C3.96164 1.90817 5.36368 1.32249 6.82588 1.32158H33.8616C35.3241 1.32249 36.7265 1.90805 37.761 2.94974C38.7954 3.99142 39.3775 5.40411 39.3793 6.87773V34.1188ZM33.865 0H6.82588C5.0161 0.00183177 3.28097 0.727036 2.00126 2.01646C0.721555 3.30589 0.00181796 5.05421 0 6.87773L0 34.1188C0.00181622 35.9427 0.721443 37.6913 2.00105 38.9813C3.28066 40.2713 5.01579 40.9972 6.82588 41H33.865C35.6751 40.9972 37.4102 40.2713 38.6898 38.9813C39.9695 37.6913 40.6891 35.9427 40.6909 34.1188V6.87773C40.6891 5.05421 39.9693 3.30589 38.6896 2.01646C37.4099 0.727036 35.6748 0.00183177 33.865 0" fill="#EAB53E"/>
<path d="M20.3437 27.2171C19.0249 27.2171 17.7357 26.8231 16.6392 26.0848C15.5427 25.3466 14.688 24.2973 14.1833 23.0696C13.6787 21.8419 13.5466 20.491 13.8039 19.1878C14.0612 17.8845 14.6962 16.6874 15.6288 15.7477C16.5613 14.8081 17.7494 14.1682 19.0429 13.909C20.3363 13.6498 21.677 13.7828 22.8954 14.2913C24.1138 14.7998 25.1552 15.661 25.8879 16.7659C26.6206 17.8707 27.0116 19.1697 27.0116 20.4985C27.0098 22.2798 26.3067 23.9877 25.0566 25.2472C23.8066 26.5068 22.1116 27.2153 20.3437 27.2171ZM20.3437 12.5933C18.7912 12.5933 17.2735 13.0572 15.9826 13.9264C14.6918 14.7955 13.6858 16.0309 13.0918 17.4762C12.4978 18.9216 12.3426 20.5119 12.6457 22.0461C12.9488 23.5804 13.6967 24.9896 14.7948 26.0955C15.8928 27.2014 17.2917 27.9543 18.8145 28.2591C20.3373 28.5639 21.9156 28.4068 23.3498 27.8077C24.784 27.2085 26.0096 26.1943 26.8716 24.8933C27.7337 23.5922 28.1935 22.0628 28.1928 20.4985C28.1901 18.4021 27.3621 16.3925 25.8906 14.9105C24.4191 13.4284 22.4243 12.5951 20.3437 12.5933Z" fill="#EAB53E"/>
<path d="M20.3436 29.0609C18.6628 29.0609 17.0198 28.5587 15.6223 27.6178C14.2248 26.677 13.1356 25.3397 12.4924 23.7751C11.8492 22.2105 11.6809 20.4888 12.0088 18.8278C12.3367 17.1669 13.1461 15.6412 14.3345 14.4437C15.523 13.2462 17.0372 12.4307 18.6857 12.1003C20.3341 11.7699 22.0428 11.9395 23.5956 12.5875C25.1484 13.2356 26.4756 14.3331 27.4094 15.7412C28.3432 17.1493 28.8416 18.8048 28.8416 20.4983C28.8397 22.7687 27.9438 24.9455 26.3505 26.5509C24.7573 28.1563 22.5968 29.059 20.3436 29.0609ZM20.3436 10.7837C18.4358 10.7837 16.571 11.3537 14.9848 12.4217C13.3987 13.4897 12.1625 15.0077 11.4326 16.7836C10.7027 18.5596 10.5119 20.5137 10.8843 22.399C11.2567 24.2842 12.1757 26.0158 13.5249 27.3747C14.874 28.7337 16.5929 29.659 18.464 30.0335C20.3352 30.4081 22.2745 30.2152 24.0368 29.4791C25.7991 28.743 27.3052 27.4969 28.3646 25.8983C29.424 24.2997 29.989 22.4205 29.9884 20.4983C29.9847 17.9224 28.9673 15.453 27.1592 13.6319C25.3512 11.8107 22.9001 10.7864 20.3436 10.7837Z" fill="#EAB53E"/>
<path d="M25.7724 20.3394H21.2573V21.8374H23.8565C23.5689 22.6565 23.0135 23.3527 22.2814 23.8118C21.5493 24.2708 20.6841 24.4654 19.8277 24.3636C18.9714 24.2618 18.1749 23.8696 17.5689 23.2515C16.963 22.6333 16.5837 21.826 16.4932 20.9619C16.4027 20.0979 16.6065 19.2286 17.0711 18.4966C17.5357 17.7647 18.2335 17.2137 19.0499 16.9341C19.8663 16.6545 20.7528 16.6629 21.5639 16.9579C22.3749 17.253 23.0623 17.8171 23.5131 18.5577C23.932 18.191 24.4264 17.762 24.8213 17.4333C24.0768 16.3409 22.9681 15.5538 21.6966 15.2151C20.4251 14.8764 19.0752 15.0086 17.8922 15.5876C16.7092 16.1666 15.7716 17.154 15.2498 18.3704C14.7279 19.5868 14.6565 20.9514 15.0485 22.2164C15.4405 23.4813 16.2698 24.5626 17.3858 25.2638C18.5018 25.9649 19.8305 26.2394 21.1303 26.0373C22.4301 25.8352 23.6148 25.17 24.4691 24.1625C25.3235 23.155 25.7908 21.8722 25.7861 20.547C25.7861 20.4709 25.7861 20.3982 25.7861 20.3221" fill="#EAB53E"/>
</svg>
